<?xml version="1.0" encoding="UTF-8" standalone="no"?>
<!DOCTYPE svg PUBLIC "-//W3C//DTD SVG 1.1//EN" "http://www.w3.org/Graphics/SVG/1.1/DTD/svg11.dtd">
<svg width="100%" height="100%" viewBox="0 0 194 385" version="1.1" xmlns="http://www.w3.org/2000/svg" xmlns:xlink="http://www.w3.org/1999/xlink" xml:space="preserve" xmlns:serif="http://www.serif.com/" style="fill-rule:evenodd;clip-rule:evenodd;stroke-linecap:round;stroke-linejoin:round;stroke-miterlimit:1.5;">
    <g transform="matrix(1,0,0,1,-0.0164363,0.00267715)">
        <g id="Layer1">
            <g transform="matrix(0.976529,0,0,0.976712,1.40533,1.38621)">
                <path d="M64.002,15.998L64.002,47.993C64.002,56.822 56.833,63.99 48.002,63.99L16.001,63.99C7.17,63.99 0,56.822 0,47.993L0,15.998C0,7.168 7.17,0 16.001,0L48.002,0C56.833,0 64.002,7.168 64.002,15.998Z" style="fill:white;stroke:black;stroke-width:2.84px;"/>
            </g>
            <g transform="matrix(1.95306,0,0,1.95342,67,1.38621)">
                <path d="M64.002,7.679L64.002,56.311C64.002,60.549 60.561,63.99 56.322,63.99L7.68,63.99C3.441,63.99 0,60.549 0,56.311L0,7.679C0,3.441 3.441,0 7.68,0L56.322,0C60.561,0 64.002,3.441 64.002,7.679Z" style="fill:white;stroke:black;stroke-width:1.42px;"/>
            </g>
            <g transform="matrix(2.92959,0,0,2.93014,1.40533,195.567)">
                <path d="M64.002,5.759L64.002,58.231C64.002,61.41 61.421,63.99 58.242,63.99L5.76,63.99C2.581,63.99 0,61.41 0,58.231L0,5.759C0,2.581 2.581,0 5.76,0L58.242,0C61.421,0 64.002,2.581 64.002,5.759Z" style="fill:white;stroke:black;stroke-width:0.95px;"/>
            </g>
            <g transform="matrix(0.976529,0,0,1.95342,1.40533,67.1934)">
                <path d="M64.002,7.999L64.002,55.991C64.002,60.406 56.833,63.99 48.002,63.99L16.001,63.99C7.17,63.99 0,60.406 0,55.991L0,7.999C0,3.584 7.17,0 16.001,0L48.002,0C56.833,0 64.002,3.584 64.002,7.999Z" style="fill:white;stroke:black;stroke-width:1.8px;"/>
            </g>
        </g>
    </g>
</svg>
